<svg width="72" height="72" viewBox="0 0 72 72" fill="none" xmlns="http://www.w3.org/2000/svg">
<circle cx="36" cy="36" r="36" fill="url(#paint0_linear_40_91)"/>
<path d="M27.5802 43.7893C28.8943 45.1033 31.0247 45.1033 32.3387 43.7893C33.6527 42.4753 33.6527 40.3449 32.3387 39.0309C31.0247 37.7168 28.8943 37.7168 27.5802 39.0309C26.2662 40.3449 26.2662 42.4753 27.5802 43.7893Z" stroke="white" stroke-width="1.44474" stroke-linecap="round" stroke-linejoin="round"/>
<path d="M50.5121 19.874L51.3052 20.6671M49.2194 26.9087L44.4609 22.1502L53.1848 18.1848L55.564 20.564L49.2194 26.9087ZM19.7128 46.1448L21.6955 48.1275L19.7128 46.1448ZM23.1945 49.6264L23.7893 50.2212L23.1945 49.6264ZM31.839 37.9444L45.7179 24.0655L31.839 37.9444ZM33.4252 39.5305L42.5456 30.4101L33.4252 39.5305ZM46.1145 26.8412L47.3041 25.6516L46.1145 26.8412ZM44.4213 28.5345L44.4014 28.5543L44.4213 28.5345ZM33.2705 52.5965L33.9883 48.5003C34.1206 47.7428 34.4454 47.0321 34.9315 46.4363C35.4176 45.8405 36.0486 45.3796 36.7641 45.0979L41.6296 43.1827C41.7463 43.1356 41.8438 43.0507 41.9064 42.9416C41.969 42.8324 41.9931 42.7054 41.9748 42.5809C41.9565 42.4565 41.8968 42.3418 41.8055 42.2553C41.7141 42.1688 41.5963 42.1155 41.471 42.1041C39.5706 41.9315 37.7905 41.0996 36.4389 39.7526C34.595 37.9087 33.8455 35.2796 34.1072 32.4245C34.1441 31.9586 34.0784 31.4902 33.9147 31.0524C33.7509 30.6146 33.4931 30.218 33.1595 29.8906L33.0961 29.8272C32.684 29.4216 32.1766 29.1261 31.6205 28.9679C31.0644 28.8097 30.4774 28.7938 29.9136 28.9217C29.3497 29.0497 28.8271 29.3173 28.3937 29.7C27.9603 30.0827 27.6301 30.5683 27.4335 31.112L26.2359 34.4588C25.9684 35.2136 25.5037 35.8831 24.8901 36.3977C24.2765 36.9123 23.5363 37.2533 22.7464 37.3852L18.773 38.099C17.459 38.329 16.2332 38.9151 15.2293 39.7936C14.2253 40.672 13.4816 41.8091 13.0792 43.081C12.6768 44.3528 12.6311 45.7108 12.947 47.0068C13.263 48.3029 13.9285 49.4874 14.8711 50.4314L20.9382 56.4985C21.8821 57.4411 23.0667 58.1066 24.3627 58.4226C25.6588 58.7385 27.0167 58.6928 28.2886 58.2904C29.5605 57.8879 30.6975 57.1443 31.576 56.1403C32.4544 55.1363 33.0406 53.9106 33.2705 52.5965V52.5965ZM47.7363 21.0637L48.9259 22.2533L47.7363 21.0637Z" stroke="white" stroke-width="1.44474" stroke-linecap="round" stroke-linejoin="round"/>
<defs>
<linearGradient id="paint0_linear_40_91" x1="0" y1="39.5" x2="72" y2="39.5" gradientUnits="userSpaceOnUse">
<stop stop-color="#EF1F56"/>
<stop offset="1" stop-color="#F3742A"/>
</linearGradient>
</defs>
</svg>
