<svg xmlns="http://www.w3.org/2000/svg" width="394" height="716" viewBox="0 0 394 716">
  <g id="Vector_Smart_Object" data-name="Vector Smart Object" transform="translate(-91.282 -281.592)">
    <g id="Character">
      <g id="Group_3" data-name="Group 3">
        <g id="Group_2" data-name="Group 2">
          <g id="Group_1" data-name="Group 1">
            <path id="Path_3" data-name="Path 3" d="M102.155,967.467l-2.843,16.142,2.4.531c10.688,2.265,54.512,10.763,62.057,9.69,8.415-1.2-23.63-13.815-23.63-13.815l1.006-6.819Z" fill="#32b1da"/>
          </g>
        </g>
      </g>
      <g id="Group_6" data-name="Group 6" opacity="0.5">
        <g id="Group_5" data-name="Group 5">
          <g id="Group_4" data-name="Group 4">
            <path id="Path_4" data-name="Path 4" d="M113.527,985.49a13.739,13.739,0,0,0-3.7-9.11,13.313,13.313,0,0,0-8.7-4.255l-1.692,10.932Z" fill="#fff"/>
          </g>
        </g>
      </g>
      <g id="Group_9" data-name="Group 9">
        <g id="Group_8" data-name="Group 8">
          <g id="Group_7" data-name="Group 7" opacity="0.5">
            <path id="Path_5" data-name="Path 5" d="M155.707,986.759s11.118,5.158,9.371,6.852-46.356-5.226-65.766-10l.2-.865,51.963,8.515S153.418,986.5,155.707,986.759Z" fill="#fff"/>
          </g>
        </g>
      </g>
      <g id="Group_13" data-name="Group 13">
        <g id="Group_12" data-name="Group 12">
          <g id="Group_11" data-name="Group 11">
            <g id="Group_10" data-name="Group 10">
              <path id="Path_6" data-name="Path 6" d="M98.9,982.626a3.75,3.75,0,0,0,.662.176c.572.125,1.2.263,1.911.417l7.052,1.407c5.965,1.148,14.226,2.62,23.383,4.049s17.48,2.537,23.508,3.261l7.148.805c.721.07,1.361.129,1.947.187a3.8,3.8,0,0,0,.682.033,3.452,3.452,0,0,0-.671-.13c-.581-.083-1.219-.173-1.936-.274l-7.126-.957c-6.017-.81-14.323-1.973-23.477-3.4s-17.418-2.846-23.4-3.909l-7.078-1.258-1.929-.327A3.622,3.622,0,0,0,98.9,982.626Z" fill="#263238"/>
            </g>
          </g>
        </g>
      </g>
      <g id="Group_17" data-name="Group 17">
        <g id="Group_16" data-name="Group 16">
          <g id="Group_15" data-name="Group 15">
            <g id="Group_14" data-name="Group 14">
              <path id="Path_7" data-name="Path 7" d="M151.369,991.866a16.4,16.4,0,0,1,1.852-3.187,16,16,0,0,1,2.843-2.346,6.388,6.388,0,0,0-4.7,5.533Z" fill="#263238"/>
            </g>
          </g>
        </g>
      </g>
      <g id="Group_21" data-name="Group 21">
        <g id="Group_20" data-name="Group 20">
          <g id="Group_19" data-name="Group 19">
            <g id="Group_18" data-name="Group 18">
              <path id="Path_8" data-name="Path 8" d="M140.748,984.222c.1.088.754-.5,1.464-1.308s1.2-1.539,1.1-1.626-.754.5-1.464,1.31S140.647,984.136,140.748,984.222Z" fill="#263238"/>
            </g>
          </g>
        </g>
      </g>
      <g id="Group_25" data-name="Group 25">
        <g id="Group_24" data-name="Group 24">
          <g id="Group_23" data-name="Group 23">
            <g id="Group_22" data-name="Group 22">
              <path id="Path_9" data-name="Path 9" d="M137.843,982.058c.072.11.752-.206,1.519-.707s1.331-1,1.258-1.108-.754.2-1.519.707S137.771,981.946,137.843,982.058Z" fill="#263238"/>
            </g>
          </g>
        </g>
      </g>
      <g id="Group_29" data-name="Group 29">
        <g id="Group_28" data-name="Group 28">
          <g id="Group_27" data-name="Group 27">
            <g id="Group_26" data-name="Group 26">
              <path id="Path_10" data-name="Path 10" d="M136.414,978.054a8.966,8.966,0,0,0,4.075.678,9.032,9.032,0,0,0-4.075-.678Z" fill="#263238"/>
            </g>
          </g>
        </g>
      </g>
      <g id="Group_33" data-name="Group 33">
        <g id="Group_32" data-name="Group 32">
          <g id="Group_31" data-name="Group 31">
            <g id="Group_30" data-name="Group 30">
              <path id="Path_11" data-name="Path 11" d="M136.131,975.344a5.8,5.8,0,0,0,4.568,1.067,12.649,12.649,0,0,0-2.289-.518A12.843,12.843,0,0,0,136.131,975.344Z" fill="#263238"/>
            </g>
          </g>
        </g>
      </g>
      <g id="Group_37" data-name="Group 37">
        <g id="Group_36" data-name="Group 36">
          <g id="Group_35" data-name="Group 35">
            <g id="Group_34" data-name="Group 34">
              <path id="Path_12" data-name="Path 12" d="M142.6,981.015a7.309,7.309,0,0,0,2.514.373,14.587,14.587,0,0,0,2.764-.176,7.425,7.425,0,0,0,1.627-.393,1.373,1.373,0,0,0,.743-.685,1,1,0,0,0-.226-1.062,4.655,4.655,0,0,0-5.9.463,4.527,4.527,0,0,0-1.079,1.552,1.41,1.41,0,0,0-.171.669,7.178,7.178,0,0,1,1.475-1.969,4.6,4.6,0,0,1,2.361-1.062,3.938,3.938,0,0,1,2.961.669c.353.358.125.8-.359,1a7.735,7.735,0,0,1-1.506.384,17.525,17.525,0,0,1-2.69.272C143.569,981.083,142.613,980.938,142.6,981.015Z" fill="#263238"/>
            </g>
          </g>
        </g>
      </g>
      <g id="Group_41" data-name="Group 41">
        <g id="Group_40" data-name="Group 40">
          <g id="Group_39" data-name="Group 39">
            <g id="Group_38" data-name="Group 38">
              <path id="Path_13" data-name="Path 13" d="M143.232,981.241a2.493,2.493,0,0,0,.559-1.7,4.159,4.159,0,0,0-.4-1.942,2.55,2.55,0,0,0-1.892-1.607,1.014,1.014,0,0,0-.954,1.042,2.785,2.785,0,0,0,.254,1.187,7.674,7.674,0,0,0,.949,1.705c.669.893,1.245,1.284,1.28,1.24.053-.055-.43-.529-1-1.431a8.871,8.871,0,0,1-.818-1.672c-.263-.584-.351-1.574.3-1.591.638.037,1.184.761,1.488,1.323a4.2,4.2,0,0,1,.458,1.745A9.357,9.357,0,0,1,143.232,981.241Z" fill="#263238"/>
            </g>
          </g>
        </g>
      </g>
      <g id="Group_45" data-name="Group 45">
        <g id="Group_44" data-name="Group 44">
          <g id="Group_43" data-name="Group 43">
            <g id="Group_42" data-name="Group 42">
              <path id="Path_14" data-name="Path 14" d="M101.354,972.045c-.007.09,1.135.068,2.869.551a12.4,12.4,0,0,1,8.97,9.753c.335,1.769.219,2.906.309,2.908a2.341,2.341,0,0,0,.123-.788,10.5,10.5,0,0,0-.1-2.177,12.026,12.026,0,0,0-9.22-10.025,10.429,10.429,0,0,0-2.157-.279A2.3,2.3,0,0,0,101.354,972.045Z" fill="#263238"/>
            </g>
          </g>
        </g>
      </g>
      <g id="Group_49" data-name="Group 49">
        <g id="Group_48" data-name="Group 48">
          <g id="Group_47" data-name="Group 47">
            <g id="Group_46" data-name="Group 46">
              <path id="Path_15" data-name="Path 15" d="M119.033,982.439a22.452,22.452,0,0,0,5.616,1.453,22.417,22.417,0,0,0,5.785.428c.009-.141-2.567-.38-5.706-.9S119.071,982.306,119.033,982.439Z" fill="#263238"/>
            </g>
          </g>
        </g>
      </g>
      <g id="Group_53" data-name="Group 53">
        <g id="Group_52" data-name="Group 52">
          <g id="Group_51" data-name="Group 51">
            <g id="Group_50" data-name="Group 50">
              <path id="Path_16" data-name="Path 16" d="M111.379,981.241c-.11.081.125.573.294,1.2s.232,1.168.368,1.179.3-.586.094-1.308S111.477,981.16,111.379,981.241Z" fill="#263238"/>
            </g>
          </g>
        </g>
      </g>
      <g id="Group_57" data-name="Group 57">
        <g id="Group_56" data-name="Group 56">
          <g id="Group_55" data-name="Group 55">
            <g id="Group_54" data-name="Group 54">
              <path id="Path_17" data-name="Path 17" d="M109.049,977.2c-.107.079.081.525.423,1s.7.794.811.718-.081-.525-.423-1S109.156,977.12,109.049,977.2Z" fill="#263238"/>
            </g>
          </g>
        </g>
      </g>
      <g id="Group_61" data-name="Group 61">
        <g id="Group_60" data-name="Group 60">
          <g id="Group_59" data-name="Group 59">
            <g id="Group_58" data-name="Group 58">
              <path id="Path_18" data-name="Path 18" d="M105.173,974.914c.009.136.528.213,1.07.5s.91.661,1.026.588c.116-.055-.127-.665-.8-1.014S105.153,974.787,105.173,974.914Z" fill="#263238"/>
            </g>
          </g>
        </g>
      </g>
      <g id="Group_65" data-name="Group 65">
        <g id="Group_64" data-name="Group 64">
          <g id="Group_63" data-name="Group 63">
            <g id="Group_62" data-name="Group 62">
              <path id="Path_19" data-name="Path 19" d="M102.354,973.683c-.066.114.127.351.432.527s.605.226.673.112-.127-.351-.434-.527S102.42,973.569,102.354,973.683Z" fill="#263238"/>
            </g>
          </g>
        </g>
      </g>
      <g id="Group_68" data-name="Group 68">
        <g id="Group_67" data-name="Group 67">
          <g id="Group_66" data-name="Group 66">
            <path id="Path_20" data-name="Path 20" d="M307.766,981.268l1.466,16.324,2.455-.114c10.908-.608,55.429-3.863,62.432-6.872,7.81-3.358-26.414-7.157-26.414-7.157L346.9,976.6Z" fill="#32b1da"/>
          </g>
        </g>
      </g>
      <g id="Group_71" data-name="Group 71" opacity="0.5">
        <g id="Group_70" data-name="Group 70">
          <g id="Group_69" data-name="Group 69">
            <path id="Path_21" data-name="Path 21" d="M323.445,995.693a13.741,13.741,0,0,0-5.949-7.828,13.31,13.31,0,0,0-9.5-1.835l1.217,11Z" fill="#fff"/>
          </g>
        </g>
      </g>
      <g id="Group_74" data-name="Group 74">
        <g id="Group_73" data-name="Group 73">
          <g id="Group_72" data-name="Group 72" opacity="0.5">
            <path id="Path_22" data-name="Path 22" d="M364.492,985.887s12.078,2.074,10.833,4.166-46.11,7.076-66.093,7.539l-.035-.884,52.384-5.366S362.214,986.238,364.492,985.887Z" fill="#fff"/>
          </g>
        </g>
      </g>
      <g id="Group_78" data-name="Group 78">
        <g id="Group_77" data-name="Group 77">
          <g id="Group_76" data-name="Group 76">
            <g id="Group_75" data-name="Group 75">
              <path id="Path_23" data-name="Path 23" d="M308.579,996.751a3.76,3.76,0,0,0,.682,0c.587-.029,1.23-.061,1.955-.1l7.175-.485c6.057-.452,14.415-1.19,23.628-2.2s17.532-2.12,23.543-3l7.109-1.091,1.927-.329a3.863,3.863,0,0,0,.669-.147,3.376,3.376,0,0,0-.682.05l-1.94.241-7.129.937c-6.019.792-14.34,1.841-23.549,2.86s-17.556,1.8-23.6,2.342q-4.238.379-7.164.636l-1.947.189A3.446,3.446,0,0,0,308.579,996.751Z" fill="#263238"/>
            </g>
          </g>
        </g>
      </g>
      <g id="Group_82" data-name="Group 82">
        <g id="Group_81" data-name="Group 81">
          <g id="Group_80" data-name="Group 80">
            <g id="Group_79" data-name="Group 79">
              <path id="Path_24" data-name="Path 24" d="M361.638,991.953a10.458,10.458,0,0,1,3.086-6.569,6.394,6.394,0,0,0-3.086,6.569Z" fill="#263238"/>
            </g>
          </g>
        </g>
      </g>
      <g id="Group_86" data-name="Group 86">
        <g id="Group_85" data-name="Group 85">
          <g id="Group_84" data-name="Group 84">
            <g id="Group_83" data-name="Group 83">
              <path id="Path_25" data-name="Path 25" d="M349.391,987.351c.118.059.6-.678,1.072-1.646s.758-1.8.64-1.859-.6.68-1.072,1.648S349.27,987.294,349.391,987.351Z" fill="#263238"/>
            </g>
          </g>
        </g>
      </g>
      <g id="Group_90" data-name="Group 90">
        <g id="Group_89" data-name="Group 89">
          <g id="Group_88" data-name="Group 88">
            <g id="Group_87" data-name="Group 87">
              <path id="Path_26" data-name="Path 26" d="M346.022,986.021c.1.088.673-.4,1.282-1.08s1.024-1.31.925-1.4-.673.4-1.282,1.078S345.923,985.931,346.022,986.021Z" fill="#263238"/>
            </g>
          </g>
        </g>
      </g>
      <g id="Group_94" data-name="Group 94">
        <g id="Group_93" data-name="Group 93">
          <g id="Group_92" data-name="Group 92">
            <g id="Group_91" data-name="Group 91">
              <path id="Path_27" data-name="Path 27" d="M343.6,982.532a8.954,8.954,0,1,0,2.032-.445A4.642,4.642,0,0,0,343.6,982.532Z" fill="#263238"/>
            </g>
          </g>
        </g>
      </g>
      <g id="Group_98" data-name="Group 98">
        <g id="Group_97" data-name="Group 97">
          <g id="Group_96" data-name="Group 96">
            <g id="Group_95" data-name="Group 95">
              <path id="Path_28" data-name="Path 28" d="M342.617,979.988a5.809,5.809,0,0,0,4.691-.165,166.918,166.918,0,0,1-4.691.165Z" fill="#263238"/>
            </g>
          </g>
        </g>
      </g>
      <g id="Group_102" data-name="Group 102">
        <g id="Group_101" data-name="Group 101">
          <g id="Group_100" data-name="Group 100">
            <g id="Group_99" data-name="Group 99">
              <path id="Path_29" data-name="Path 29" d="M350.342,983.772a7.388,7.388,0,0,0,2.525-.3,14.841,14.841,0,0,0,2.622-.893,7.209,7.209,0,0,0,1.469-.805,1.375,1.375,0,0,0,.537-.854,1,1,0,0,0-.493-.968,4.655,4.655,0,0,0-5.577,1.993,4.541,4.541,0,0,0-.638,1.778,1.407,1.407,0,0,0,.011.689,7.212,7.212,0,0,1,.912-2.285,4.576,4.576,0,0,1,2-1.642,3.926,3.926,0,0,1,3.032-.13c.434.252.329.742-.086,1.058a7.709,7.709,0,0,1-1.352.766,17.874,17.874,0,0,1-2.525.966C351.3,983.585,350.333,983.693,350.342,983.772Z" fill="#263238"/>
            </g>
          </g>
        </g>
      </g>
      <g id="Group_106" data-name="Group 106">
        <g id="Group_105" data-name="Group 105">
          <g id="Group_104" data-name="Group 104">
            <g id="Group_103" data-name="Group 103">
              <path id="Path_30" data-name="Path 30" d="M351.011,983.824a2.508,2.508,0,0,0,.1-1.789,4.16,4.16,0,0,0-.894-1.769,2.544,2.544,0,0,0-2.245-1.056,1.012,1.012,0,0,0-.649,1.253,2.776,2.776,0,0,0,.555,1.082,7.75,7.75,0,0,0,1.361,1.4,3.662,3.662,0,0,0,1.559.862c.037-.066-.552-.4-1.337-1.121a8.9,8.9,0,0,1-1.225-1.4c-.406-.5-.75-1.431-.129-1.615.625-.132,1.339.426,1.782.889a4.167,4.167,0,0,1,.9,1.565A9.223,9.223,0,0,1,351.011,983.824Z" fill="#263238"/>
            </g>
          </g>
        </g>
      </g>
      <g id="Group_110" data-name="Group 110">
        <g id="Group_109" data-name="Group 109">
          <g id="Group_108" data-name="Group 108">
            <g id="Group_107" data-name="Group 107">
              <path id="Path_31" data-name="Path 31" d="M308.186,985.9c.02.088,1.116-.233,2.913-.219a12.392,12.392,0,0,1,11.2,7.071c.787,1.62.969,2.746,1.057,2.726a2.273,2.273,0,0,0-.086-.794,10.533,10.533,0,0,0-.664-2.074,12.024,12.024,0,0,0-11.515-7.269,10.562,10.562,0,0,0-2.155.3A2.336,2.336,0,0,0,308.186,985.9Z" fill="#263238"/>
            </g>
          </g>
        </g>
      </g>
      <g id="Group_114" data-name="Group 114">
        <g id="Group_113" data-name="Group 113">
          <g id="Group_112" data-name="Group 112">
            <g id="Group_111" data-name="Group 111">
              <path id="Path_32" data-name="Path 32" d="M327.965,991.308a32.46,32.46,0,0,0,11.5-1.168c-.028-.136-2.578.305-5.745.623S327.965,991.168,327.965,991.308Z" fill="#263238"/>
            </g>
          </g>
        </g>
      </g>
      <g id="Group_118" data-name="Group 118">
        <g id="Group_117" data-name="Group 117">
          <g id="Group_116" data-name="Group 116">
            <g id="Group_115" data-name="Group 115">
              <path id="Path_33" data-name="Path 33" d="M320.263,992.151c-.086.108.27.52.6,1.082s.53,1.067.664,1.042.134-.643-.25-1.288S320.337,992.046,320.263,992.151Z" fill="#263238"/>
            </g>
          </g>
        </g>
      </g>
      <g id="Group_122" data-name="Group 122">
        <g id="Group_121" data-name="Group 121">
          <g id="Group_120" data-name="Group 120">
            <g id="Group_119" data-name="Group 119">
              <path id="Path_34" data-name="Path 34" d="M316.959,988.857c-.083.1.215.485.669.852s.886.582.969.478-.215-.483-.669-.852S317.042,988.753,316.959,988.857Z" fill="#263238"/>
            </g>
          </g>
        </g>
      </g>
      <g id="Group_126" data-name="Group 126">
        <g id="Group_125" data-name="Group 125">
          <g id="Group_124" data-name="Group 124">
            <g id="Group_123" data-name="Group 123">
              <path id="Path_35" data-name="Path 35" d="M312.623,987.665c.042.132.563.068,1.164.208.6.125,1.05.4,1.142.3.1-.086-.3-.608-1.039-.77S312.568,987.549,312.623,987.665Z" fill="#263238"/>
            </g>
          </g>
        </g>
      </g>
      <g id="Group_130" data-name="Group 130">
        <g id="Group_129" data-name="Group 129">
          <g id="Group_128" data-name="Group 128">
            <g id="Group_127" data-name="Group 127">
              <path id="Path_36" data-name="Path 36" d="M309.581,987.215c-.035.127.213.305.552.4s.644.059.677-.068-.213-.305-.552-.4S309.614,987.088,309.581,987.215Z" fill="#263238"/>
            </g>
          </g>
        </g>
      </g>
      <path id="Path_37" data-name="Path 37" d="M319.215,362.163c-3.146-16.794-21.673-26.125-28.909-41.6-2.815-6.022-3.816-12.8-6.918-18.679-6.642-12.593-23.42-18.685-36.581-13.284l-1.153,1.8c7.477,15.749,14.952,26.564,22.429,42.313,2.62,5.517,5.276,11.164,5.965,17.233s-.938,12.751-5.636,16.649c-3.755,3.119-8.878,4.054-12.927,6.779-6.182,4.159-9.042,12.2-8.266,19.616s4.726,14.2,9.746,19.71c4.825,5.294,12.468,9.828,18.828,6.54,3.211-1.659,5.2-4.918,7.571-7.646,4.862-5.6,11.581-9.167,17.563-13.548C312.356,389.68,321.826,376.095,319.215,362.163Z" fill="#25272c"/>
      <path id="Path_38" data-name="Path 38" d="M480.41,440.164c-4.2,3.834-27.116,23.1-27.116,23.1l-22.723-20.707c.592-1.7,6.149-11.25,6.8-13.655a18.745,18.745,0,0,0,.568-6.343c-.2-2.585-.612-6.009-1.416-7.813-1-2.232,1.236-4.517,3.163-3.415s4.823,7.188,4.733,15.06,30.79-10.2,35.183-5.779Z" fill="#ffbe9d"/>
      <path id="Path_39" data-name="Path 39" d="M284.986,409.234,360.408,499.6,429.651,436.9l30.2,29.5s-86.922,95.751-100.182,95.076-58.3-30.5-58.3-30.5Z" fill="#32b1da"/>
      <g id="Group_133" data-name="Group 133">
        <g id="Group_131" data-name="Group 131">
          <path id="Path_40" data-name="Path 40" d="M456.153,395.788a1.238,1.238,0,0,0-1.543.72l-20.489,51.746a1.964,1.964,0,0,0,.973,2.513l24.345,11.619a1.961,1.961,0,0,0,2.646-1l23.039-53.644a1.967,1.967,0,0,0-1.168-2.634Z" fill="#263238"/>
        </g>
        <g id="Group_132" data-name="Group 132">
          <path id="Path_41" data-name="Path 41" d="M455.491,399.523,436.644,445.7l25.5,11.556L481.449,408.3Z" fill="#f5f5f5"/>
        </g>
      </g>
      <g id="Group_134" data-name="Group 134">
        <path id="Path_42" data-name="Path 42" d="M448.139,479.866c-.092.116-2.17-1.29-5.355-3.806a159.294,159.294,0,0,1-22.668-22.109c-2.6-3.121-4.055-5.164-3.939-5.258s1.806,1.754,4.544,4.725,6.567,7.032,10.976,11.336,8.562,8.024,11.6,10.686S448.24,479.734,448.139,479.866Z" fill="#263238"/>
      </g>
      <g id="Group_135" data-name="Group 135">
        <path id="Path_43" data-name="Path 43" d="M426.475,445.743c.14.123-.789.869-.691,2.473a3.122,3.122,0,0,0,1.129,2.26,2.84,2.84,0,0,0,4.3-2.476,3.122,3.122,0,0,0-1.381-2.113c-1.335-.9-2.446-.467-2.481-.652-.026-.055.193-.266.708-.386a3.29,3.29,0,0,1,2.179.34,3.783,3.783,0,0,1,2.017,2.664,3.81,3.81,0,0,1-6,3.448,3.792,3.792,0,0,1-1.282-3.086,3.3,3.3,0,0,1,.807-2.056C426.148,445.776,426.44,445.692,426.475,445.743Z" fill="#263238"/>
      </g>
      <g id="Group_136" data-name="Group 136">
        <path id="Path_44" data-name="Path 44" d="M357.44,525.989c-.134.035-.68-1.431-1.111-3.915a35.819,35.819,0,0,1,2.19-19.35c.978-2.324,1.837-3.63,1.96-3.566.335.143-2.455,5.719-3.262,13.219C356.326,519.864,357.8,525.925,357.44,525.989Z" fill="#263238"/>
      </g>
      <g id="Group_137" data-name="Group 137">
        <path id="Path_45" data-name="Path 45" d="M368.181,525.3c-.116.077-1.135-1.157-2.44-3.386a42.525,42.525,0,0,1-5.572-19.221c-.09-2.583.11-4.172.25-4.168.362-.011.294,6.362,2.486,13.794C365.027,519.771,368.492,525.118,368.181,525.3Z" fill="#263238"/>
      </g>
      <g id="Group_138" data-name="Group 138">
        <path id="Path_46" data-name="Path 46" d="M455.934,408.13l-12.47,31.049,18.679,7.651,13.02-31.737Z" fill="#ebebeb"/>
      </g>
      <g id="Group_139" data-name="Group 139">
        <path id="Rectangle_1" data-name="Rectangle 1" d="M1.6,0H13.565a1.6,1.6,0,0,1,1.6,1.6v.551a1.6,1.6,0,0,1-1.6,1.6H1.605A1.605,1.605,0,0,1,0,2.154V1.6A1.6,1.6,0,0,1,1.6,0Z" transform="matrix(0.923, 0.386, -0.385, 0.923, 448.648, 433.497)" fill="#32b1da"/>
      </g>
      <g id="Group_140" data-name="Group 140">
        <rect id="Rectangle_2" data-name="Rectangle 2" width="14.794" height="2.161" transform="matrix(0.936, 0.353, -0.352, 0.936, 457.277, 413.22)" fill="#455a64"/>
      </g>
      <g id="Group_141" data-name="Group 141">
        <rect id="Rectangle_3" data-name="Rectangle 3" width="16.361" height="4.235" transform="matrix(0.936, 0.353, -0.352, 0.936, 453.922, 419.653)" fill="#e0e0e0"/>
      </g>
      <g id="Group_142" data-name="Group 142">
        <rect id="Rectangle_4" data-name="Rectangle 4" width="16.361" height="4.235" transform="matrix(0.936, 0.353, -0.352, 0.936, 451.397, 426.026)" fill="#e0e0e0"/>
      </g>
      <g id="Group_143" data-name="Group 143">
        <path id="Path_47" data-name="Path 47" d="M479.6,420.612c-3.523.579-7.828.928-11.35,1.508a6.347,6.347,0,0,0-2.847.953,2.185,2.185,0,0,0-.8,2.662c.561,1.007,1.949,1.1,3.1,1.058q3.887-.128,7.775-.252a41.314,41.314,0,0,0-9.788,1.635c-1.462.5-3.089,1.468-3.119,3.013a2.858,2.858,0,0,0,2.576,2.581,30.686,30.686,0,0,0,4.079.064s5.324.077,5.555.773c-3.321-.024-7.716.7-11.035.992-.908.081-1.322,1.323-1.539,2.21a2.014,2.014,0,0,0,.96,2.326,3.053,3.053,0,0,0,1.309.151l12.889-.4" fill="#ffbe9d"/>
      </g>
      <g id="Group_144" data-name="Group 144">
        <path id="Path_48" data-name="Path 48" d="M258.3,403.844s15.684-1.846,26.684,5.39c9.943,6.542,44.777,106.54,43.434,136.212s2.42,81.986,8.518,103.551,10.71,208.56-37.353,297.541l-89.316-12.554,27.914-240.154-2.85-217.868Z" fill="#32b1da"/>
      </g>
      <g id="Group_145" data-name="Group 145" opacity="0.3">
        <path id="Path_49" data-name="Path 49" d="M253.168,403.844s15.684-1.846,26.682,5.39c9.945,6.542,44.779,106.54,43.436,136.212S325.705,627.433,331.8,649s10.71,208.56-37.353,297.541l-81.637-12.554,20.235-240.154L230.2,475.963Z"/>
      </g>
      <path id="Path_50" data-name="Path 50" d="M220.313,399.244s-49.122-5.309-35.985,65L196.95,538.2l80.21,48.583c10.835,2.926,1.622-50.561,17.938-75.194,6.116-9.235,6.646-16.148,6.116-20.413,1.543-16.115-11.355-26.18-13.192-42.487-2.017-23.613-1.927-36.695-12.188-39.335l-55.521-10.115" fill="#25272c"/>
      <path id="Path_51" data-name="Path 51" d="M288.947,443.085c.241.007-1.543,3.992-.013,10.363a42.034,42.034,0,0,0,4.3,10.493c2.01,3.8,4.579,7.877,6.261,12.683a40.451,40.451,0,0,1,.342,25.465,36.2,36.2,0,0,1-3.126,7.148,11.5,11.5,0,0,1-1.613,2.357c-.221-.114,2.164-3.487,3.968-9.74a41.344,41.344,0,0,0-.647-24.848c-1.622-4.651-4.134-8.711-6.114-12.573a40.337,40.337,0,0,1-4.161-10.813,19.641,19.641,0,0,1-.127-7.822,11.537,11.537,0,0,1,.594-2.048C288.8,443.3,288.91,443.072,288.947,443.085Z" fill="#263238"/>
      <g id="Group_179" data-name="Group 179">
        <g id="Group_148" data-name="Group 148">
          <g id="Group_147" data-name="Group 147">
            <g id="Group_146" data-name="Group 146">
              <path id="Path_52" data-name="Path 52" d="M264.352,404.305c-1.151-12.1-2.142-24.857-2.142-24.857s15.309-4.122,16.535-24.769c1.168-19.691-4.779-53.982-4.779-53.982v-1.736c-23.3-6.94-50.88-6.665-65.089,12.859h0l10.973,98.113c1.274,11.388,12.07,19.364,24.242,17.9h0C256.384,426.364,265.45,415.832,264.352,404.305Z" fill="#ffbe9d"/>
            </g>
          </g>
        </g>
        <g id="Group_156" data-name="Group 156">
          <g id="Group_151" data-name="Group 151">
            <g id="Group_150" data-name="Group 150">
              <g id="Group_149" data-name="Group 149">
                <path id="Path_53" data-name="Path 53" d="M273.944,325.6a2.619,2.619,0,0,1-2.253,2.877,2.5,2.5,0,0,1-2.915-2.085,2.621,2.621,0,0,1,2.249-2.879A2.505,2.505,0,0,1,273.944,325.6Z" fill="#263238"/>
              </g>
            </g>
          </g>
          <g id="Group_155" data-name="Group 155">
            <g id="Group_154" data-name="Group 154">
              <g id="Group_153" data-name="Group 153">
                <g id="Group_152" data-name="Group 152">
                  <path id="Path_54" data-name="Path 54" d="M273.936,322.733c-.292.373-2.407-.9-5.208-.61-2.8.241-4.717,1.887-5.055,1.574-.164-.136.1-.781.936-1.523a7.168,7.168,0,0,1,4-1.681,6.892,6.892,0,0,1,4.187.911C273.727,321.981,274.078,322.567,273.936,322.733Z" fill="#263238"/>
                </g>
              </g>
            </g>
          </g>
        </g>
        <g id="Group_164" data-name="Group 164">
          <g id="Group_159" data-name="Group 159">
            <g id="Group_158" data-name="Group 158">
              <g id="Group_157" data-name="Group 157">
                <path id="Path_55" data-name="Path 55" d="M244.805,329.392a2.62,2.62,0,0,1-2.253,2.877,2.5,2.5,0,0,1-2.915-2.085,2.619,2.619,0,0,1,2.251-2.879A2.5,2.5,0,0,1,244.805,329.392Z" fill="#263238"/>
              </g>
            </g>
          </g>
          <g id="Group_163" data-name="Group 163">
            <g id="Group_162" data-name="Group 162">
              <g id="Group_161" data-name="Group 161">
                <g id="Group_160" data-name="Group 160">
                  <path id="Path_56" data-name="Path 56" d="M244.8,326.633c-.292.373-2.409-.893-5.208-.61-2.8.244-4.717,1.89-5.055,1.576-.164-.138.1-.784.936-1.525a7.167,7.167,0,0,1,4-1.681,6.9,6.9,0,0,1,4.187.911C244.584,325.881,244.939,326.467,244.8,326.633Z" fill="#263238"/>
                </g>
              </g>
            </g>
          </g>
        </g>
        <g id="Group_168" data-name="Group 168">
          <g id="Group_167" data-name="Group 167">
            <g id="Group_166" data-name="Group 166">
              <g id="Group_165" data-name="Group 165">
                <path id="Path_57" data-name="Path 57" d="M257.011,346.438c-.029-.158,1.683-.63,4.47-1.271.708-.145,1.372-.353,1.445-.854a3.672,3.672,0,0,0-.686-2.076q-1.266-2.5-2.652-5.247c-3.7-7.477-6.458-13.653-6.155-13.8s3.549,5.794,7.251,13.273q1.342,2.769,2.565,5.287a4.18,4.18,0,0,1,.649,2.776,1.808,1.808,0,0,1-1.074,1.163,4.847,4.847,0,0,1-1.2.288C258.8,346.412,257.037,346.6,257.011,346.438Z" fill="#263238"/>
              </g>
            </g>
          </g>
        </g>
        <g id="Group_171" data-name="Group 171">
          <g id="Group_170" data-name="Group 170">
            <g id="Group_169" data-name="Group 169">
              <path id="Path_58" data-name="Path 58" d="M262.21,379.448a51.854,51.854,0,0,1-27.907-4.582s7.968,13.315,28.1,9.409Z" fill="#eb996e"/>
            </g>
          </g>
        </g>
        <g id="Group_174" data-name="Group 174">
          <g id="Group_173" data-name="Group 173">
            <g id="Group_172" data-name="Group 172">
              <path id="Path_59" data-name="Path 59" d="M256.491,353.316a5.075,5.075,0,0,0-4.713-1.431,4.623,4.623,0,0,0-3.014,2.023,2.944,2.944,0,0,0,.105,3.367,3.406,3.406,0,0,0,3.766.568,10.681,10.681,0,0,0,3.371-2.493,3.135,3.135,0,0,0,.719-.909.945.945,0,0,0-.107-1.045" fill="#e8505b"/>
            </g>
          </g>
        </g>
        <g id="Group_178" data-name="Group 178">
          <g id="Group_177" data-name="Group 177">
            <g id="Group_176" data-name="Group 176">
              <g id="Group_175" data-name="Group 175">
                <path id="Path_60" data-name="Path 60" d="M248.955,349.192c.454-.072.758,2.974,3.573,4.879s6.022,1.251,6.087,1.675c.061.187-.664.663-2.03.834a7.606,7.606,0,0,1-5.064-1.225,6.643,6.643,0,0,1-2.8-4.111C248.479,349.983,248.744,349.195,248.955,349.192Z" fill="#263238"/>
              </g>
            </g>
          </g>
        </g>
      </g>
      <path id="Path_61" data-name="Path 61" d="M168.151,680.729l-31.138,128.5s-37.153,153.9-38.319,157.959l-1.177,4.8,52.333,3.946,90.613-285.477Z" fill="#25272c"/>
      <path id="Path_62" data-name="Path 62" d="M262.346,770.936c8.472,40.992,39.523,212.908,39.523,212.908l53.068-5.449L324.754,759.12A72.121,72.121,0,0,0,321.3,742.3L271.689,593.39l-93.36-59.416c-.925.05-15.114,38.369-13.069,64.982a68.106,68.106,0,0,0,11.912,33.137c5.936,8.673,14.2,20.766,16.046,23.558C196.17,660.116,262.346,770.936,262.346,770.936Z" fill="#25272c"/>
      <path id="Path_63" data-name="Path 63" d="M156.237,585.59q-3.844,13.889-6.324,28.092c-5.971,34.424-21.136,118.21-30.969,140.363-12.471,28.087-32.732,134.2-26.5,153.7s141.833,39.013,141.833,39.013,7.793-127.177,15.586-159.167,24.159-102.21,26.5-143.562,1.559-113.133-11.69-157.606-43.721-91.178-43.721-91.178-26.037,7.183-34.909,17.525c0,0-10.838,13.3-11.055,25.959s-6,72.863-9.93,107.844C163.929,556.62,159.525,573.71,156.237,585.59Z" fill="#32b1da"/>
      <g id="Group_180" data-name="Group 180">
        <path id="Path_64" data-name="Path 64" d="M276.474,641.947a2.783,2.783,0,0,1-.077-.634c-.028-.485-.066-1.1-.112-1.865-.083-1.721-.2-4.119-.349-7.168a226.433,226.433,0,0,0-2.523-26.218,89.4,89.4,0,0,0-4.748-17.47,68.428,68.428,0,0,0-10.452-17.858c-4.509-5.787-9.842-11.386-15.013-17.542a110.454,110.454,0,0,1-7.422-9.782,57.1,57.1,0,0,1-5.767-11.307c-3.038-7.986-4-16.864-1.353-24.684,1.223-3.964,3.8-7.172,5.721-10.414a19.48,19.48,0,0,0,2.271-5.054,7.845,7.845,0,0,0,.208-2.6,5.594,5.594,0,0,0-.877-2.357,7.824,7.824,0,0,0-4.088-2.93c-1.633-.632-3.367-1.082-5.007-1.844a9.6,9.6,0,0,1-4.108-3.435,12.39,12.39,0,0,1-1.762-4.85,32.6,32.6,0,0,1,.254-9.582q.651-4.513,1.249-8.658c1.611-10.965,2.918-19.866,3.836-26.119.469-3.015.837-5.388,1.1-7.091l.316-1.841a2.639,2.639,0,0,1,.145-.621,2.688,2.688,0,0,1-.029.636c-.053.483-.121,1.1-.2,1.857-.213,1.712-.511,4.1-.888,7.124-.833,6.261-2.017,15.181-3.479,26.167q-.559,4.145-1.175,8.669a32.022,32.022,0,0,0-.193,9.305,11.462,11.462,0,0,0,1.642,4.464,8.6,8.6,0,0,0,3.716,3.062c1.53.7,3.242,1.146,4.956,1.8a8.853,8.853,0,0,1,4.6,3.316,6.709,6.709,0,0,1,1.048,2.8,8.939,8.939,0,0,1-.219,2.98,20.544,20.544,0,0,1-2.376,5.359c-1.99,3.364-4.45,6.435-5.6,10.218-2.525,7.49-1.613,16.1,1.363,23.922,2.889,7.938,7.859,14.663,12.979,20.77,5.125,6.128,10.456,11.755,14.983,17.612a68.863,68.863,0,0,1,10.5,18.159,89.053,89.053,0,0,1,4.663,17.682,206.939,206.939,0,0,1,2.172,26.334c.057,3.053.1,5.456.134,7.179,0,.768,0,1.383,0,1.868A2.676,2.676,0,0,1,276.474,641.947Z" fill="#263238"/>
      </g>
      <g id="Group_181" data-name="Group 181">
        <path id="Path_65" data-name="Path 65" d="M259.181,659.324c-.046-.046.123-.356.647-.694a3.677,3.677,0,0,1,2.565-.452,3.6,3.6,0,0,1,2.933,2.6,3.9,3.9,0,0,1-6.436,3.992,3.561,3.561,0,0,1-.969-3.8,3.614,3.614,0,0,1,1.611-2.05c.548-.3.9-.294.918-.233a4.855,4.855,0,0,0-1.751,2.5,2.746,2.746,0,0,0,.883,2.792,2.879,2.879,0,0,0,4.724-2.937,2.81,2.81,0,0,0-2.087-2.074A5.054,5.054,0,0,0,259.181,659.324Z" fill="#263238"/>
      </g>
      <g id="Group_182" data-name="Group 182">
        <path id="Path_66" data-name="Path 66" d="M244.665,734.957c-.046-.046.123-.356.647-.693a3.677,3.677,0,0,1,2.565-.452,3.6,3.6,0,0,1,2.933,2.6,3.9,3.9,0,0,1-6.436,3.992,3.561,3.561,0,0,1-.969-3.8,3.623,3.623,0,0,1,1.611-2.05c.548-.3.9-.294.918-.233a4.869,4.869,0,0,0-1.751,2.5,2.747,2.747,0,0,0,.883,2.792,2.879,2.879,0,0,0,4.724-2.937A2.8,2.8,0,0,0,247.7,734.6,5.035,5.035,0,0,0,244.665,734.957Z" fill="#263238"/>
      </g>
      <g id="Group_184" data-name="Group 184">
        <g id="Group_183" data-name="Group 183">
          <path id="Path_67" data-name="Path 67" d="M244.2,640.336a5.289,5.289,0,0,1-.024.737c-.05.547-.114,1.258-.2,2.155-.215,1.962-.515,4.732-.9,8.265-.842,7.172-2.1,17.546-4.022,30.319-.967,6.384-2.1,13.37-3.654,20.819a68.4,68.4,0,0,1-3.168,11.417,10.832,10.832,0,0,1-.673,1.431,5.638,5.638,0,0,1-1.094,1.255,11.052,11.052,0,0,1-2.707,1.749,33.067,33.067,0,0,1-6.061,2.087c-8.382,1.982-17.368,2.623-26.645,3.02a272.488,272.488,0,0,1-28.775-.34c-.4-.033-.8-.081-1.214-.138a1.811,1.811,0,0,1-1.317-.961,7,7,0,0,1-.688-2.493,33.011,33.011,0,0,1-.138-4.8c.11-3.158.41-6.259.763-9.319.717-6.117,1.657-12.064,2.637-17.838,1.984-11.548,4.154-22.4,6.3-32.36l.079-.358.364-.033a307.143,307.143,0,0,0,51.88-9.022c6.164-1.624,10.965-3.077,14.233-4.08,1.607-.492,2.865-.876,3.786-1.159.844-.25,1.258-.375,1.241-.353a3.078,3.078,0,0,1-.342.14l-.958.358c-.848.309-2.017.766-3.63,1.306-3.242,1.1-8.023,2.642-14.176,4.354a293.978,293.978,0,0,1-51.945,9.448l.443-.388c-2.093,9.946-4.226,20.8-6.182,32.332-.965,5.765-1.894,11.7-2.6,17.783-.349,3.042-.644,6.123-.75,9.224a31.786,31.786,0,0,0,.134,4.622,6.062,6.062,0,0,0,.541,2.061c.182.279.259.371.5.406.377.051.758.1,1.153.129a276.073,276.073,0,0,0,28.624.362c9.233-.38,18.2-1.005,26.434-2.926a32.1,32.1,0,0,0,5.862-1.991c1.824-.9,3.435-1.98,4.011-3.928a68.163,68.163,0,0,0,3.157-11.2c1.585-7.4,2.764-14.373,3.781-20.742,2.023-12.742,3.4-23.1,4.38-30.249.476-3.52.848-6.281,1.111-8.239.129-.891.23-1.6.309-2.14C244.141,640.617,244.2,640.349,244.2,640.336Z" fill="#263238"/>
        </g>
      </g>
      <g id="Group_186" data-name="Group 186">
        <g id="Group_185" data-name="Group 185">
          <path id="Path_68" data-name="Path 68" d="M242.8,656.344a14.559,14.559,0,0,1-2.617,1.35c-1.71.816-4.242,1.872-7.411,3.064a139.339,139.339,0,0,1-51.952,8.658c-3.387-.1-6.122-.277-8-.494a14.732,14.732,0,0,1-2.911-.428,14.475,14.475,0,0,1,2.94-.018c1.885.081,4.616.136,7.983.129A159.427,159.427,0,0,0,232.5,660c3.189-1.086,5.754-2.026,7.512-2.713A14.8,14.8,0,0,1,242.8,656.344Z" fill="#263238"/>
        </g>
      </g>
      <g id="Group_187" data-name="Group 187">
        <path id="Path_69" data-name="Path 69" d="M119.785,594.443s.044-.356.189-1.034c.16-.726.379-1.727.664-3.011.631-2.691,1.545-6.571,2.714-11.542,2.413-10.01,6.074-24.453,10.824-42.241,2.407-8.888,5.04-18.617,7.867-29.062,2.863-10.436,5.853-21.611,9.428-33.258a270.708,270.708,0,0,1,13.516-35.756,166.668,166.668,0,0,1,9.728-17.759,64.162,64.162,0,0,1,6.057-8.456,26.158,26.158,0,0,1,8.279-6.645,14.141,14.141,0,0,1,10.59-.819,18.266,18.266,0,0,1,8.481,6.207c4.38,5.649,5.463,12.764,6.1,19.3,1.12,13.2,2.2,25.932,3.229,38.062,2.023,24.249,3.847,46.088,5.377,64.447,1.486,18.31,2.69,33.144,3.527,43.457.388,5.092.693,9.064.9,11.821.088,1.312.158,2.335.206,3.077.039.694.031,1.051.031,1.051s-.068-.351-.147-1.042c-.077-.74-.182-1.758-.318-3.066-.261-2.752-.636-6.718-1.116-11.8-.923-10.306-2.249-25.129-3.887-43.426-1.6-18.354-3.507-40.187-5.623-64.427-1.05-12.126-2.153-24.85-3.295-38.045-.631-6.485-1.736-13.385-5.881-18.7a17.143,17.143,0,0,0-7.937-5.822,12.99,12.99,0,0,0-9.752.766,25.082,25.082,0,0,0-7.909,6.365,63.27,63.27,0,0,0-5.956,8.313A166.494,166.494,0,0,0,166,439.018a271.637,271.637,0,0,0-13.521,35.589c-3.6,11.612-6.62,22.772-9.522,33.2-2.874,10.429-5.552,20.145-8,29.022-4.851,17.753-8.628,32.161-11.173,42.135-1.258,4.947-2.242,8.809-2.922,11.487-.331,1.275-.587,2.265-.774,2.985C119.906,594.107,119.785,594.443,119.785,594.443Z" fill="#455a64"/>
      </g>
      <g id="Group_188" data-name="Group 188">
        <path id="Path_70" data-name="Path 70" d="M114.406,586.873c-.855,3.424-16.8,94.224-16.8,94.224l118.571,3.843,16.324-94.16Z" fill="#25272c"/>
      </g>
      <g id="Group_190" data-name="Group 190">
        <g id="Group_189" data-name="Group 189">
          <path id="Path_71" data-name="Path 71" d="M231.287,592.512a5.83,5.83,0,0,1-1.068.81c-.719.5-1.8,1.218-3.2,2.118-2.806,1.8-6.909,4.328-12.089,7.264s-11.425,6.314-18.543,9.7c-3.582,1.668-7.286,3.437-11.381,4.918a39.656,39.656,0,0,1-13.231,1.934c-9.233-.2-17.686-3.079-24.819-6.424A90.321,90.321,0,0,1,129.387,601.4c-4.638-3.76-8.137-7.089-10.535-9.4-1.19-1.165-2.1-2.078-2.709-2.715a6.046,6.046,0,0,1-.886-1.007,5.82,5.82,0,0,1,1.043.841l2.856,2.555c2.486,2.208,6.059,5.434,10.732,9.093a93.427,93.427,0,0,0,17.517,11.109c7.067,3.255,15.395,6.042,24.391,6.235a38.951,38.951,0,0,0,12.856-1.852c3.961-1.416,7.734-3.182,11.289-4.811,7.111-3.321,13.376-6.617,18.6-9.452s9.378-5.263,12.249-6.94c1.35-.788,2.444-1.429,3.308-1.934A5.77,5.77,0,0,1,231.287,592.512Z" fill="#455a64"/>
        </g>
      </g>
      <g id="Group_192" data-name="Group 192">
        <g id="Group_191" data-name="Group 191">
          <path id="Path_72" data-name="Path 72" d="M224.033,596.561c.311.055-2.867,19.831-7.1,44.166s-7.911,44.025-8.222,43.972,2.867-19.827,7.1-44.17S223.724,596.508,224.033,596.561Z" fill="#455a64"/>
        </g>
      </g>
      <g id="Group_193" data-name="Group 193">
        <path id="Path_73" data-name="Path 73" d="M168.256,615.694q-.477,4.421-.949,8.84a7.617,7.617,0,0,0,.044,2.794,2.306,2.306,0,0,0,4.463.439,7.675,7.675,0,0,0,.631-3.176l.506-9.479-3.9.031" fill="#455a64"/>
      </g>
      <g id="Group_194" data-name="Group 194">
        <path id="Path_74" data-name="Path 74" d="M192.691,407.235c9.625-3.228,17.677,9.277,18.784,19.381a221.455,221.455,0,0,1,.662,35.027c-1.754,34.584-17.381,67.675-17.381,67.675l99.171,14.84-3.641,38.192L164.878,568.879a29.759,29.759,0,0,1-25.272-38.31c11.208-36.48,29.516-89.084,33.642-97.812C178.791,421.022,179.416,411.688,192.691,407.235Z" fill="#32b1da"/>
      </g>
      <g id="Group_196" data-name="Group 196">
        <g id="Group_195" data-name="Group 195">
          <path id="Path_75" data-name="Path 75" d="M160.156,567.982a3.093,3.093,0,0,1,.644.055c.476.064,1.1.149,1.885.259l7.273,1.082c6.348.882,15.583,2.188,27.179,3.531,23.183,2.745,55.764,6,93.189,8.888l-.594.5c1.153-12.154,2.37-24.969,3.619-38.137l.007-.057.48.619c-37.256-5.616-71.661-10.8-99.143-14.948l-.544-.081.167-.514c6.456-19.978,11.39-36.5,14.325-48.125,1.48-5.809,2.51-10.379,3.157-13.5.309-1.517.55-2.7.726-3.558.167-.8.287-1.211.287-1.211s-.028.424-.151,1.236-.3,2.019-.592,3.584c-.563,3.141-1.515,7.734-2.92,13.57-2.786,11.68-7.6,28.265-13.957,48.278l-.377-.595c27.5,4.082,61.921,9.2,99.2,14.731l.533.079-.053.54,0,.055c-1.26,13.168-2.488,25.983-3.65,38.135l-.053.546-.544-.044c-37.445-2.945-70.019-6.345-93.193-9.286-11.589-1.442-20.818-2.857-27.151-3.86l-7.247-1.268-1.87-.356A3.031,3.031,0,0,1,160.156,567.982Z" fill="#263238"/>
        </g>
      </g>
      <g id="Group_198" data-name="Group 198">
        <g id="Group_197" data-name="Group 197">
          <path id="Path_76" data-name="Path 76" d="M270.753,580.761c-.313-.029.252-8.9,1.263-19.813s2.085-19.739,2.4-19.708-.252,8.9-1.263,19.816S271.068,580.792,270.753,580.761Z" fill="#263238"/>
        </g>
      </g>
      <g id="Group_199" data-name="Group 199">
        <path id="Path_77" data-name="Path 77" d="M283.375,547.736c0-.068.259-.173.745-.092a2.764,2.764,0,0,1,1.71,1.152,2.866,2.866,0,0,1,.162,3.132,3.375,3.375,0,0,1-3.488,1.626,3.486,3.486,0,0,1-2.63-2.8,3.182,3.182,0,0,1,1.041-2.941c1.416-1.2,2.67-.786,2.6-.672.022.18-1.065.158-2.023,1.242a2.424,2.424,0,0,0-.581,2.164,2.527,2.527,0,0,0,1.824,1.887,2.406,2.406,0,0,0,2.363-1.053,2.06,2.06,0,0,0,.053-2.155C284.453,547.962,283.335,547.9,283.375,547.736Z" fill="#263238"/>
      </g>
      <g id="Group_208" data-name="Group 208">
        <g id="Group_201" data-name="Group 201">
          <g id="Group_200" data-name="Group 200">
            <path id="Path_78" data-name="Path 78" d="M315.3,533.015l4.532,47.044h22.9l5.486-47.044Z" fill="#ebebeb"/>
          </g>
        </g>
        <g id="Group_203" data-name="Group 203">
          <g id="Group_202" data-name="Group 202">
            <path id="Path_79" data-name="Path 79" d="M315.3,526.935s-1.909,1.909-2.148,6.209H350.36s.717-3.821-2.146-6.209Z" fill="#455a64"/>
          </g>
        </g>
        <g id="Group_205" data-name="Group 205">
          <g id="Group_204" data-name="Group 204">
            <path id="Path_80" data-name="Path 80" d="M319.542,522.624l-1.259,4.655,28.086.211-1.854-4.92Z" fill="#455a64"/>
          </g>
        </g>
        <g id="Group_207" data-name="Group 207">
          <g id="Group_206" data-name="Group 206">
            <path id="Path_81" data-name="Path 81" d="M314.828,544.791c0,.437,2.725,23.678,2.725,23.678h27.995l2.666-23.678Z" fill="#455a64"/>
          </g>
        </g>
      </g>
      <g id="Group_209" data-name="Group 209">
        <path id="Path_82" data-name="Path 82" d="M316.571,540.636l-.721,7.868,27.109.639s0,9.154-2.742,11.9c0,0,2.742,5.491-.3,8.542s-4.875,2.135-4.875,2.135,1.219,6.1-1.828,7.627-42.557-.836-42.557-.836l2.429-25.465,8.83-.788C302.215,543.847,310.938,539.646,316.571,540.636Z" fill="#ffbe9d"/>
      </g>
      <path id="Path_83" data-name="Path 83" d="M282.283,300.888a20.145,20.145,0,0,0-8.628-10.921,15.069,15.069,0,0,0-9.178-1.885l.031-.064-.055-.661c-2.948-5.3-8.768-6.439-14.775-5.436-5.973,1-11.92,5.4-17.267,8.254-7.234,3.858-14.154,8.278-21.066,12.692-5.743,3.667-11.629,7.471-15.59,13.019a27.1,27.1,0,0,0-4.54,20.408c1.416,7.69,6.164,15.494,3.349,22.787-1.876,4.866-6.642,7.914-9.777,12.079-4.886,6.5-5.268,16.225-.414,22.746,3.192,4.288,8.093,6.876,12.552,9.819,7.091,4.681,13.431,10.567,21.059,14.307s17.282,4.971,24.308.189c7.232-4.923,9.544-14.827,8.255-23.487s-5.46-16.572-8.812-24.662a136.39,136.39,0,0,1-9-32.889c-.642-4.5-1-9.349,1.14-13.361,1.925-3.6,5.531-5.908,8.79-8.359a70.19,70.19,0,0,0,18.808-21.508c1.377,4.005,4.342,7.574,7.508,10.526a67.557,67.557,0,0,0,14.766,10.453A34.321,34.321,0,0,0,282.283,300.888Z" fill="#25272c"/>
    </g>
  </g>
</svg>
