<svg height="512pt" viewBox="0 0 512 512.001" width="512pt" xmlns="http://www.w3.org/2000/svg"><path d="m367.820312 161.054688c0-6.367188-4.019531-12.039063-10.027343-14.144532l-86.925781-30.511718v-34.6875h44.980468c8.277344 0 14.992188-6.0625 14.992188-13.535157v-54.140625c0-7.476562-6.714844-13.535156-14.992188-13.535156h-56.191406c-1.210938-.316406-2.472656-.5-3.78125-.5-4.503906 0-8.535156 1.996094-11.28125 5.140625-2.304688 2.378906-3.710938 5.484375-3.710938 8.894531v102.363282l-86.925781 30.511718c-6.007812 2.105469-10.027343 7.777344-10.027343 14.144532v12.070312h223.890624zm0 0"/><path d="m458.777344 302.351562h52.972656v-45.226562c0-8.28125-6.710938-14.992188-14.992188-14.992188h-75.960937l-.003906 269.867188h75.964843c8.28125 0 14.992188-6.710938 14.992188-14.992188v-44.730468h-52.972656c-8.28125 0-14.992188-6.710938-14.992188-14.992188 0-8.277344 6.710938-14.992187 14.992188-14.992187h52.972656v-29.984375h-52.972656c-8.28125 0-14.992188-6.710938-14.992188-14.992188s6.710938-14.992187 14.992188-14.992187h52.972656v-29.988281h-52.972656c-8.28125 0-14.992188-6.710938-14.992188-14.992188 0-8.277344 6.710938-14.992188 14.992188-14.992188zm0 0"/><path d="m0 257.125v45.226562h52.976562c8.277344 0 14.992188 6.714844 14.992188 14.992188 0 8.28125-6.714844 14.992188-14.992188 14.992188h-52.976562v29.988281h52.976562c8.277344 0 14.992188 6.710937 14.992188 14.992187s-6.714844 14.992188-14.992188 14.992188h-52.976562v29.984375h52.976562c8.277344 0 14.992188 6.714843 14.992188 14.996093 0 8.277344-6.714844 14.992188-14.992188 14.992188h-52.976562v44.726562c0 8.28125 6.714844 14.992188 14.992188 14.992188h75.964843v-269.867188h-75.964843c-8.277344 0-14.992188 6.710938-14.992188 14.992188zm0 0"/><path d="m255.875 424.292969c-8.265625 0-14.992188 6.726562-14.992188 14.992187v72.671875h29.984376v-72.671875c0-8.265625-6.726563-14.992187-14.992188-14.992187zm0 0"/><path d="m375.816406 203.109375h-239.882812c-8.28125 0-14.992188 6.710937-14.992188 14.992187v278.863282c0 8.28125 6.710938 14.992187 14.992188 14.992187h74.964844v-72.671875c0-24.800781 20.175781-44.976562 44.976562-44.976562s44.980469 20.175781 44.980469 44.976562v72.671875h74.960937c8.28125 0 14.992188-6.710937 14.992188-14.992187v-278.863282c0-8.28125-6.710938-14.992187-14.992188-14.992187zm-149.925781 150.21875h-29.984375c-8.28125 0-14.992188-6.714844-14.992188-14.992187 0-8.28125 6.710938-14.992188 14.992188-14.992188h29.984375c8.28125 0 14.992187 6.710938 14.992187 14.992188 0 8.277343-6.710937 14.992187-14.992187 14.992187zm0-59.972656h-29.984375c-8.28125 0-14.992188-6.710938-14.992188-14.992188 0-8.277343 6.710938-14.992187 14.992188-14.992187h29.984375c8.28125 0 14.992187 6.714844 14.992187 14.992187 0 8.28125-6.710937 14.992188-14.992187 14.992188zm89.957031 59.972656h-29.988281c-8.277344 0-14.992187-6.714844-14.992187-14.992187 0-8.28125 6.714843-14.992188 14.992187-14.992188h29.988281c8.277344 0 14.992188 6.710938 14.992188 14.992188 0 8.277343-6.714844 14.992187-14.992188 14.992187zm0-59.972656h-29.988281c-8.277344 0-14.992187-6.710938-14.992187-14.992188 0-8.277343 6.714843-14.992187 14.992187-14.992187h29.988281c8.277344 0 14.992188 6.714844 14.992188 14.992187 0 8.28125-6.714844 14.992188-14.992188 14.992188zm0 0"/></svg>