<svg id="Capa_1" enable-background="new 0 0 512 512" height="512" viewBox="0 0 512 512" width="512" xmlns="http://www.w3.org/2000/svg"><g><path d="m85.54 452.541h15c24.515 0 44.459 19.944 44.459 44.459v15h73.848v-18.461c0-20.519 16.634-37.153 37.153-37.153 20.519 0 37.153 16.634 37.153 37.153v18.461h73.848v-15c0-24.515 19.944-44.459 44.459-44.459h15v-302.045h-340.92zm65.226-133.863h30v-30.184h-30v-19.34c0-25.47 20.722-46.191 46.191-46.191 9.342 0 18.039 2.796 25.315 7.583 5.642-12.606 13.767-24.106 24.034-33.669l10.224-9.522 10.224 9.523c10.346 9.637 18.52 21.241 24.167 33.963 7.249-4.734 15.896-7.497 25.181-7.497 25.471 0 46.192 20.722 46.192 46.192v18.958h-30.057v30.184h30.057v18.542c0 25.47-20.722 46.191-46.192 46.191-9.2 0-17.773-2.714-24.981-7.369-5.652 12.897-13.899 24.658-24.367 34.408l-10.224 9.523-10.224-9.522c-10.387-9.675-18.585-21.332-24.234-34.113-7.235 4.707-15.858 7.454-25.114 7.454-25.471 0-46.192-20.722-46.192-46.191z"/><path d="m426.46 59.459h-15c-24.515 0-44.459-19.944-44.459-44.459v-15h-73.848v18.461c0 20.519-16.634 37.153-37.153 37.153-20.519 0-37.153-16.634-37.153-37.153v-18.461h-73.848v15c0 24.515-19.944 44.459-44.459 44.459h-15v61.037h340.92z"/><path d="m299.909 337.22c0 8.928 7.264 16.191 16.191 16.191 8.929 0 16.136-7.264 16.136-16.191v-18.542h-32.327z"/><path d="m269.909 334.255v-15.577h-26.76v15.577c0 15.254 4.762 30.103 13.38 42.461 8.617-12.359 13.38-27.207 13.38-42.461z"/><path d="m213.149 269.153c0-8.928-7.264-16.191-16.191-16.191-8.929 0-16.192 7.264-16.192 16.191v19.34h32.384v-19.34z"/><path d="m269.909 273.072c0-15.254-4.763-30.103-13.38-42.461-8.618 12.358-13.38 27.207-13.38 42.461v15.421h26.76z"/><path d="m316.101 253.343c-8.928 0-16.191 7.264-16.191 16.192v18.958h32.327v-18.958c-.001-8.929-7.208-16.192-16.136-16.192z"/><path d="m196.957 353.793c8.929 0 16.192-7.264 16.192-16.191v-18.924h-32.384v18.924c.001 8.927 7.264 16.191 16.192 16.191z"/></g></svg>