<svg id="Layer_3" enable-background="new 0 0 64 64" height="512" viewBox="0 0 64 64" width="512" xmlns="http://www.w3.org/2000/svg"><g><g><path d="m25 25h14v4h-14z"/><path d="m36 21h-8c-1.302 0-2.402.839-2.816 2h13.631c-.413-1.161-1.513-2-2.815-2z"/><path d="m30 17h4v2h-4z"/><path d="m24 33h16c.552 0 1-.448 1-1s-.448-1-1-1h-16c-.552 0-1 .448-1 1s.448 1 1 1z"/><path d="m3 59h58v2h-58z"/></g><g><path d="m49 23h3v4h-3z"/><path d="m3 3h58v2h-58z"/><path d="m53 7h2v8h-2z"/><path d="m59 27v-10h-10v4h4c.553 0 1 .447 1 1v5z"/><path d="m9 7h2v8h-2z"/><path d="m12 23h3v4h-3z"/><path d="m15 17h-10v10h5v-5c0-.553.447-1 1-1h4z"/><path d="m63 37h-4v-8h-10v8h-11c.552 0 1-.448 1-1v-1h-4v1c0 .552.448 1 1 1h-8c.552 0 1-.448 1-1v-1h-4v1c0 .552.448 1 1 1h-11v-8h-10v8h-4v2h21.414l-18 18h26.586v-4h2v4h26.586l-18-18h21.414zm-30 14h-2v-4h2zm0-6h-2v-4h2z"/></g></g></svg>