<?xml version="1.0" encoding="utf-8"?>
<!-- Generator: Adobe Illustrator 23.0.2, SVG Export Plug-In . SVG Version: 6.00 Build 0)  -->
<svg version="1.1" id="Layer_1" xmlns="http://www.w3.org/2000/svg" xmlns:xlink="http://www.w3.org/1999/xlink" x="0px" y="0px"
	 viewBox="0 0 300 200" enable-background="new 0 0 300 200" xml:space="preserve">
<g>
	<path d="M142.758,191.176c-4.171-1.549-5.856-4.565-5.605-8.963c0.188-3.291,0.037-6.601,0.037-10.096c-2.927,0-5.682,0-8.693,0
		c0-0.899,0-1.605,0-2.311c0-10.415-0.002-20.831,0.001-31.246c0.002-6.587,3.405-10.118,9.981-10.174
		c1.37-0.011,1.801-0.646,2.224-1.713c3.853-9.728,7.737-19.444,11.615-29.162c1.226-3.072,2.202-3.737,5.546-3.738
		c21.759-0.004,43.519-0.004,65.278-0.001c3.487,0,4.409,0.622,5.686,3.815c3.835,9.592,7.693,19.175,11.463,28.792
		c0.558,1.422,1.176,2.04,2.828,2.016c5.084-0.074,8.043,2.79,9.522,7.441c0,12.076,0,24.153,0,36.229c-2.683,0-5.365,0-8.224,0
		c0,3.466-0.174,6.643,0.042,9.792c0.302,4.394-1.209,7.567-5.355,9.318c-2.92,0-5.839,0-8.759,0
		c-4.138-1.579-5.885-4.601-5.565-8.981c0.135-1.845,0.022-3.708,0.022-5.563c0-1.488,0-2.975,0-4.425c-22.83,0-45.324,0-68.026,0
		c0,3.281-0.195,6.459,0.047,9.604c0.34,4.415-1.197,7.569-5.307,9.364C148.597,191.176,145.677,191.176,142.758,191.176z
		 M231.993,128.261c-0.272-0.714-0.447-1.203-0.644-1.683c-3.096-7.535-6.23-15.054-9.258-22.616
		c-0.503-1.256-1.109-1.652-2.447-1.649c-19.438,0.046-38.877,0.047-58.315-0.001c-1.412-0.003-2.08,0.419-2.61,1.746
		c-2.973,7.441-6.056,14.838-9.094,22.253c-0.242,0.591-0.432,1.203-0.697,1.949C176.671,128.261,204.187,128.261,231.993,128.261z
		 M230.856,140.6c-4.87,0.036-8.857,4.044-8.844,8.89c0.013,4.693,3.953,8.819,8.473,8.874c5.162,0.062,9.462-4.083,9.388-9.049
		C239.8,144.476,235.752,140.564,230.856,140.6z M140.768,149.479c-0.002,4.712,3.977,8.897,8.435,8.87
		c5.19-0.031,9.337-3.928,9.408-8.837c0.069-4.794-3.968-8.872-8.822-8.912C144.787,140.558,140.77,144.512,140.768,149.479z"/>
	<path d="M48.801,182.815c0.187-0.328,0.403-0.642,0.557-0.985c1.477-3.273,3.974-5.098,7.592-5.105
		c20.073-0.036,40.147-0.06,60.22-0.024c4.588,0.008,7.95,3.504,8.051,8.117c0.047,2.118,0.015,4.238,0.019,6.357
		c-25.48,0-50.96,0-76.44,0C48.801,188.376,48.801,185.595,48.801,182.815z"/>
	<path d="M137.374,102.337c-1.952,2.257-3.496,4.054-5.053,5.841c-4.533,5.201-9.105,10.368-13.567,15.63
		c-0.649,0.765-1.09,1.971-1.096,2.976c-0.074,12.273-0.046,24.548-0.049,36.822c-0.001,4.669-1.815,6.469-6.507,6.469
		c-16.122,0.002-32.244,0.002-48.366,0c-4.435-0.001-6.324-1.861-6.324-6.245c-0.003-43.854-0.003-87.709,0-131.563
		c0-4.367,1.916-6.253,6.344-6.254c16.188-0.004,32.377-0.005,48.565,0c4.386,0.001,6.286,1.909,6.287,6.318
		c0.005,22.491,0.002,44.982,0.002,67.474c0,0.785,0,1.57,0,2.534C124.091,102.337,130.429,102.337,137.374,102.337z M105.73,68.572
		c0-7.429,0.042-14.859-0.014-22.288c-0.041-5.428-3.885-9.813-9.289-10.059c-6.22-0.283-12.473-0.289-18.693-0.004
		c-5.505,0.253-9.341,4.643-9.432,10.167c-0.238,14.525-0.469,29.049-0.661,43.574c-0.087,6.569,4.172,10.873,10.741,10.914
		c5.505,0.034,11.011,0.028,16.517,0.002c6.621-0.032,10.814-4.223,10.83-10.815C105.745,82.9,105.732,75.736,105.73,68.572z"/>
	<path d="M157.197,46.646c3.393-3.915,6.447-7.461,9.543-10.971c0.261-0.295,0.801-0.484,1.213-0.486
		c9.129-0.027,18.258-0.021,27.857-0.021c-0.69,0.86-1.137,1.454-1.622,2.015c-2.423,2.807-4.833,5.625-7.307,8.386
		c-0.437,0.487-1.151,1.026-1.741,1.03C176.009,46.666,166.879,46.646,157.197,46.646z"/>
	<path d="M118.063,91.539c3.446-3.964,6.501-7.513,9.616-11.009c0.286-0.32,0.947-0.428,1.434-0.429
		c8.88-0.023,17.761-0.015,26.641-0.008c0.183,0,0.365,0.073,0.872,0.181c-3.229,3.708-6.324,7.285-9.464,10.821
		c-0.257,0.289-0.825,0.425-1.249,0.426C136.846,91.545,127.779,91.539,118.063,91.539z"/>
	<path d="M176.388,57.732c-3.322,3.781-6.233,7.124-9.193,10.424c-0.354,0.395-0.967,0.788-1.462,0.791
		c-9.189,0.047-18.377,0.034-27.877,0.034c0.434-0.628,0.674-1.056,0.99-1.418c2.264-2.593,4.658-5.083,6.775-7.79
		c1.289-1.647,2.704-2.118,4.727-2.088c7.811,0.115,15.624,0.047,23.436,0.047C174.485,57.732,175.184,57.732,176.388,57.732z"/>
	<path d="M205.138,23.974c-9.639,0-18.778,0-28.306,0c4.191-4.789,8.142-9.303,12.2-13.941
		C194.355,14.641,199.572,19.157,205.138,23.974z"/>
</g>
</svg>
